<?xml version="1.0" encoding="UTF-8"?><svg id="Layer_1" xmlns="http://www.w3.org/2000/svg" viewBox="0 0 112 112"><rect y="0" width="112" height="112" rx="20.57" ry="20.57" fill="#ec2938"/><circle cx="56.12" cy="56.08" r="49.32" fill="none"/><circle cx="56.12" cy="56.08" r="48.1" fill="none" stroke="#fff" stroke-miterlimit="10" stroke-width="2.44"/><path d="M85.79,63.74l-13.82-7.8,13.68-8.05-8.03-13.64-13.59,7.99v-15.76h-15.83v16.05l-13.97-7.89-7.78,13.78,13.82,7.8-13.67,8.05,8.03,13.64,13.59-7.99v15.76h15.83v-16.05l13.97,7.89,7.78-13.79Z" fill="#fff"/><path d="M54.84,30.64h0c.52-.73,1.52-.89,2.24-.37.15.11.27.24.38.39.27.37.41.83.4,1.29l-1.03,49.13c0,.08-.02.15-.06.21-.09.16-.29.21-.44.12-.05-.03-.08-.06-.11-.11h0c-.05-.08-.07-.16-.07-.24l-1.72-49.08c-.02-.49.12-.96.42-1.35Z" fill="#ec2938"/><path d="M55.37,59.17l-.02-.55c-.02.09-.03.19-.03.28,0,.09.02.18.05.27Z" fill="none"/><path d="M57.19,65.68h0c0-.06-.01-.12-.03-.17v.44c.02-.08.03-.17.03-.26h0Z" fill="none"/><path d="M53.09,39.38c-.1.31-.13.65-.09.97.05.38.16.76.32,1.11.38.81.9,1.56,1.52,2.21l-.2-5.6c-.15-.05-.3-.13-.42-.24-.51.4-.9.94-1.12,1.55Z" fill="none"/><path d="M57.54,50.59s-.04-.04-.06-.07v.22s.04-.09.06-.14Z" fill="none"/><path d="M55.86,80.05l.09.12.16-.1v-.22c-.09.07-.16.14-.24.21Z" fill="#ec2938"/><path d="M57.77,50.18c.08.08.16.17.21.28.02.03.03.07.02.11-.02.13-.07.26-.14.37-.1.19-.22.37-.35.54-.02.03-.04.05-.06.08l-.08,3.79.3-.27c.22-.2.44-.4.66-.61.45-.43.88-.88,1.27-1.37.22-.27.42-.56.6-.87.22-.37.37-.78.46-1.21.1-.52.05-1.07-.15-1.56-.17-.42-.41-.8-.72-1.13-.46-.48-.97-.91-1.53-1.29-.24-.17-.48-.33-.71-.49l-.07,3.38c.1.08.19.17.28.26Z" fill="#ec2938"/><path d="M54.08,55.17c-.42.51-.78,1.08-1.07,1.67-.16.34-.28.69-.36,1.05-.09.39-.11.8-.08,1.2.04.4.14.79.3,1.16.15.34.33.66.55.95.4.52.85.98,1.36,1.4.24.2.47.38.71.56l-.11-3.03c-.05-.07-.1-.14-.15-.22-.22-.3-.35-.65-.38-1.01,0-.36.1-.72.28-1.03.05-.09.1-.18.16-.28l-.13-3.67c-.39.39-.75.81-1.1,1.24Z" fill="#ec2938"/><path d="M54.56,44.05c-.68-.71-1.23-1.52-1.65-2.4-.18-.39-.3-.81-.35-1.24-.05-.39-.01-.79.11-1.16.27-.74.75-1.39,1.39-1.85.05-.02.11-.03.16-.03.06,0,.13.01.18.04.06.03.1.1.22.17l-.09-2.65c-.52.02-1.02.19-1.44.48v.02c-.55.33-1.05.73-1.5,1.19-.51.51-.91,1.11-1.19,1.77-.28.69-.4,1.43-.37,2.18.03.7.18,1.4.44,2.06.48,1.2,1.18,2.3,2.05,3.26.74.84,1.57,1.6,2.48,2.26l-.13-3.8c-.1-.1-.19-.21-.3-.31Z" fill="#ec2938"/><path d="M57.2,64.65c.12.16.23.33.31.52.07.15.11.32.12.49,0,.38-.14.75-.38,1.05-.04.05-.08.1-.12.15l-.05,2.21.08-.06c.52-.36.99-.79,1.41-1.26.23-.27.43-.58.58-.9.17-.36.27-.75.29-1.15.02-.4-.04-.8-.17-1.18-.12-.34-.29-.67-.49-.97-.37-.54-.81-1.02-1.31-1.45-.07-.07-.15-.13-.22-.19l-.06,2.72.02.03Z" fill="#ec2938"/><path d="M55.67,68.28c-.06.06-.11.12-.17.19-.21.26-.4.54-.55.84-.3.59-.47,1.23-.52,1.88-.09,1.27.26,2.53.99,3.57.16.23.33.45.52.66l-.07-2.01c-.22-.67-.28-1.38-.17-2.07.02-.13.05-.26.08-.38l-.09-2.69-.02.02Z" fill="#ec2938"/><path d="M57.3,77.41c.05.24.05.49,0,.73-.06.25-.16.49-.31.71-.04.06-.08.11-.12.17v.49c.14-.13.29-.28.42-.43.2-.24.36-.51.47-.8.1-.31.14-.63.11-.95-.08-.62-.33-1.21-.7-1.71-.07-.1-.14-.2-.22-.29l-.03,1.26c.17.25.3.54.37.84Z" fill="#ec2938"/><path d="M56.51,52.63c-.19.19-.38.38-.57.57l-.31.3-.32.31-.12.13.13,3.67c.2-.31.42-.6.66-.87.35-.39.71-.76,1.1-1.11l.3-.27h.01s.08-3.8.08-3.8c-.3.37-.61.73-.95,1.06Z" fill="#ec2938"/><path d="M55.89,37.8c.15,0,.32,0,.51-.01,1.78-.09,1.29-.77,1.03-1.1-.51-.6-1.13-1.1-1.82-1.49-.32-.17-.68-.26-1.05-.26h-.05l.09,2.65c.4.18.84.25,1.28.21Z" fill="#ec2938"/><path d="M56.09,79.85v.22c.28-.17.53-.36.77-.56v-.49c-.22.3-.49.58-.77.83Z" fill="#ec2938"/><path d="M56.21,67.78l-.17.15c-.06.06-.13.11-.19.17s-.11.11-.16.16l.09,2.69c.15-.56.44-1.08.84-1.5.04-.04.08-.08.12-.12.04-.04.08-.08.13-.11.04-.04.09-.07.13-.11l.08-.06.05-2.21c-.28.34-.59.64-.93.92Z" fill="#ec2938"/><path d="M58.08,37.55c.13-.4.01-.85-.29-1.14h0s-.03,1.51-.03,1.51c.14-.09.26-.22.33-.37Z" fill="#fff"/><path d="M55.87,73.41l-.09-2.45c-.03.13-.06.25-.08.38-.11.69-.05,1.41.17,2.07Z" fill="#fff"/><path d="M57.63,65.65c0-.17-.05-.33-.12-.49-.08-.18-.19-.36-.31-.52l-.02-.03-.02.88c.02.06.02.11.03.17h0c0,.1,0,.19-.04.27l-.02.91c.04-.05.08-.1.12-.15.24-.3.38-.67.38-1.05Z" fill="#fff"/><path d="M54.88,58.91c.03.36.16.71.38,1.01.05.07.1.14.15.22l-.03-.97c-.03-.09-.04-.18-.05-.27,0-.09,0-.19.03-.28l-.03-1.01c-.06.09-.11.19-.16.28-.18.31-.28.67-.28,1.03Z" fill="#fff"/><path d="M57.87,50.94c.07-.12.11-.24.14-.37,0-.04,0-.07-.02-.11-.06-.1-.13-.2-.21-.28-.09-.09-.18-.18-.28-.26v.6s.03.05.05.07c-.02.05-.04.1-.06.14l-.02.82s.04-.05.06-.08c.13-.17.25-.35.35-.54Z" fill="#fff"/><path d="M57.3,78.15c.05-.24.05-.49,0-.73-.07-.3-.2-.58-.37-.83l-.05,2.44c.04-.06.08-.11.12-.17.14-.22.24-.45.3-.71Z" fill="#fff"/><path d="M57.46,62.1c.5.42.94.91,1.31,1.45.21.3.37.63.49.97.13.38.19.78.17,1.18-.02.4-.12.79-.29,1.15-.15.32-.35.63-.58.9-.42.48-.89.9-1.41,1.26l-.08.06v.58s.04-.04.07-.07h0s0,0,0,0c.03-.03.07-.05.1-.08l.16-.11c.55-.38,1.05-.83,1.49-1.33.26-.3.47-.64.64-1,.19-.41.31-.86.33-1.32.02-.46-.05-.91-.2-1.34-.13-.38-.32-.74-.54-1.07-.39-.57-.86-1.08-1.39-1.53-.08-.07-.17-.14-.25-.21l-.12-.1-.14-.12v.57c.07.06.15.12.22.19h0Z" fill="#fff"/><path d="M55.51,63.16c-.24-.18-.48-.37-.71-.56-.5-.41-.96-.88-1.36-1.4-.22-.29-.41-.61-.55-.95-.16-.37-.26-.76-.3-1.16-.04-.4-.01-.81.08-1.2.08-.36.2-.72.36-1.05.29-.6.65-1.16,1.07-1.67.35-.43.72-.84,1.1-1.24l-.02-.61-.17.16c-.45.44-.87.91-1.27,1.4-.44.54-.82,1.13-1.12,1.76-.17.37-.3.75-.39,1.15-.2.88-.11,1.8.25,2.63.16.37.36.72.61,1.04.42.54.9,1.03,1.43,1.47.23.19.47.38.73.58l.29.21-.02-.56h0Z" fill="#fff"/><path d="M54.21,37.37c-.06,0-.11.01-.16.03-.63.47-1.12,1.11-1.39,1.85-.12.37-.16.77-.11,1.16.06.43.17.84.35,1.24.42.88.98,1.69,1.65,2.4.1.1.19.21.29.31l-.02-.67c-.62-.65-1.13-1.4-1.52-2.21-.16-.35-.27-.72-.32-1.11-.04-.33-.01-.66.09-.97.22-.61.61-1.14,1.12-1.54.12.11.27.19.42.24l-.02-.49c-.12-.07-.17-.14-.22-.17-.05-.03-.11-.05-.18-.06Z" fill="#fff"/><path d="M55.42,74.76c-.72-1.04-1.07-2.3-.99-3.57.05-.66.22-1.29.52-1.88.15-.3.33-.58.55-.84.05-.07.11-.13.17-.19l.02-.02-.02-.6s-.08.08-.13.12c-.07.07-.14.14-.2.2s-.12.13-.18.21c-.23.28-.43.59-.6.92-.32.64-.51,1.34-.57,2.05-.1,1.37.28,2.73,1.06,3.85.19.27.39.53.61.77h0s0,0,0,0l.29.3-.02-.67c-.18-.21-.35-.43-.51-.66Z" fill="#fff"/><path d="M57.17,75.62c.37.5.62,1.09.7,1.71.03.32,0,.64-.11.95-.1.29-.26.56-.47.8-.13.15-.28.3-.43.43v.58c.27-.21.54-.45.77-.72.24-.28.42-.59.55-.94.13-.37.17-.76.13-1.14-.09-.7-.36-1.36-.78-1.92-.08-.12-.18-.25-.29-.39l-.25-.32s-.02-.03-.03-.05v.71c.06.09.13.19.2.29Z" fill="#fff"/><path d="M61.14,50.2c-.03-.31-.1-.61-.21-.9-.19-.47-.46-.9-.8-1.27-.47-.49-.99-.94-1.56-1.32l-.04-.03c-.24-.17-.47-.33-.74-.51l-.22-.15v.53c.22.16.46.32.7.49.55.37,1.06.81,1.53,1.29.31.33.55.72.72,1.13.19.5.24,1.04.15,1.56-.08.43-.24.84-.46,1.21-.18.31-.38.6-.6.87-.39.48-.82.94-1.27,1.37-.22.21-.43.41-.66.61l-.3.27v.61s.29-.27.29-.27l.31-.28c.25-.23.46-.42.67-.62.47-.44.91-.91,1.31-1.41.24-.29.45-.6.64-.93.24-.42.42-.87.51-1.35.05-.3.06-.61.03-.91Z" fill="#fff"/><path d="M55.94,80.17l-.09-.12c.08-.07.16-.13.24-.2l-.02-.58c-.15.15-.32.29-.5.45l-.32.27.24.33.09.12.24.33.29-.18-.02-.51-.16.09Z" fill="#fff"/><path d="M52.51,45.9c-.87-.96-1.56-2.06-2.05-3.26-.26-.66-.41-1.35-.44-2.06-.03-.74.09-1.49.37-2.18.28-.66.68-1.26,1.19-1.77.45-.45.95-.85,1.5-1.19v-.02c.43-.29.93-.46,1.44-.48l-.02-.44c-.6.03-1.17.22-1.67.55l-.24.16v.02c-.48.32-.93.68-1.34,1.09-.55.55-.98,1.2-1.28,1.92-.3.75-.44,1.56-.4,2.37.03.75.19,1.49.47,2.19.5,1.25,1.22,2.4,2.13,3.4.84.95,1.79,1.8,2.83,2.53l-.02-.56c-.9-.66-1.73-1.42-2.48-2.26Z" fill="#fff"/><path d="M55.31,53.8l.32-.31.31-.3c.19-.18.39-.38.57-.57.33-.34.65-.69.94-1.07l.02-.82c-.09.17-.19.33-.31.48-.3.39-.62.75-.97,1.1-.17.17-.35.36-.56.56l-.31.3-.16.16.02.61.12-.13Z" fill="#fff"/><path d="M57.37,55.36l-.3.27c-.39.35-.75.72-1.1,1.11-.24.27-.46.56-.66.87l.03,1.01c.04-.19.11-.36.2-.53.21-.38.46-.74.76-1.06.33-.38.69-.73,1.06-1.07v-.61s0,.01,0,.01Z" fill="#fff"/><path d="M54.57,34.94c.36,0,.72.09,1.05.26.69.38,1.31.89,1.82,1.49.26.33.75,1.01-1.03,1.1-.19,0-.36.01-.51.01-.44.04-.88-.03-1.28-.21l.02.49c.41.12.84.18,1.26.16.16,0,.34,0,.53-.01.46,0,.91-.1,1.32-.31l.03-1.52c-.55-.65-1.22-1.19-1.96-1.6-.39-.2-.81-.3-1.24-.3h-.06l.02.44h.05Z" fill="#fff"/><path d="M55.85,68.1c.06-.06.12-.12.19-.17l.17-.15c.34-.28.65-.59.93-.92l.02-.91c-.06.18-.15.35-.26.5-.28.37-.61.7-.97.99l-.18.15s-.05.04-.08.07l.02.6c.05-.05.1-.1.16-.16Z" fill="#ec2938"/><path d="M56.1,80.07l.02.51.06-.04c.22-.13.45-.29.68-.46v-.58c-.23.21-.49.39-.75.56Z" fill="#fff"/><path d="M56.57,70.24c.11-.17.23-.33.37-.48h0s.06-.07.09-.1h0s0,0,0,0h.01s.01-.59.01-.59l-.08.06s-.09.07-.13.11c-.04.04-.09.07-.13.11-.04.04-.08.08-.12.12-.4.42-.69.94-.84,1.5,0,0,.02.68.04,1.28.04-.73.3-1.43.76-1.99Z" fill="#fff"/><path d="M54.84,43.92l.19,5.77-.38-.03-.14-5.98.33.24Z" fill="#fff"/><path d="M57.48,50.83l.11-5.2.33.04-.03,4.9-.41.26Z" fill="#fff"/><path d="M55.4,59.84l.11,3.44-.35-.05-.03-3.71.26.31Z" fill="#fff"/><path d="M57.24,61.66l-.07,3.84.37-.08-.02-3.76h-.28Z" fill="#fff"/><path d="M56.96,74.89l-.03,2.75.17.07.12-2.85-.26.03Z" fill="#fff"/><path d="M55.85,72.92l.14,4.36-.38-.05.05-4.81.19.5Z" fill="#fff"/></svg>